<svg width="285" height="37" viewBox="0 0 285 37" fill="none" xmlns="http://www.w3.org/2000/svg">
<g clip-path="url(#clip0)">
<path d="M1.36 25.5V11.5H10.5V13.56H3.92V17.4H9.9V19.4H3.92V23.44H10.5V25.5H1.36ZM11.9225 25.5L15.5225 20.54L11.9225 15.58H14.6625L17.1825 19.1L19.6825 15.58H22.4425L18.8225 20.54L22.4425 25.5H19.6825L17.1825 21.98L14.6625 25.5H11.9225ZM24.0734 29.9V15.58H26.3534L26.6334 17C26.9534 16.56 27.3734 16.1733 27.8934 15.84C28.4268 15.5067 29.1134 15.34 29.9534 15.34C30.8868 15.34 31.7201 15.5667 32.4534 16.02C33.1868 16.4733 33.7668 17.0933 34.1934 17.88C34.6201 18.6667 34.8334 19.56 34.8334 20.56C34.8334 21.56 34.6201 22.4533 34.1934 23.24C33.7668 24.0133 33.1868 24.6267 32.4534 25.08C31.7201 25.52 30.8868 25.74 29.9534 25.74C29.2068 25.74 28.5534 25.6 27.9934 25.32C27.4334 25.04 26.9801 24.6467 26.6334 24.14V29.9H24.0734ZM29.4134 23.5C30.2268 23.5 30.9001 23.2267 31.4334 22.68C31.9668 22.1333 32.2334 21.4267 32.2334 20.56C32.2334 19.6933 31.9668 18.98 31.4334 18.42C30.9001 17.86 30.2268 17.58 29.4134 17.58C28.5868 17.58 27.9068 17.86 27.3734 18.42C26.8534 18.9667 26.5934 19.6733 26.5934 20.54C26.5934 21.4067 26.8534 22.12 27.3734 22.68C27.9068 23.2267 28.5868 23.5 29.4134 23.5ZM37.1203 25.5V11.1H39.6803V25.5H37.1203ZM47.0561 25.74C46.0961 25.74 45.2294 25.52 44.4561 25.08C43.6961 24.64 43.0894 24.0333 42.6361 23.26C42.1961 22.4733 41.9761 21.5667 41.9761 20.54C41.9761 19.5133 42.2028 18.6133 42.6561 17.84C43.1094 17.0533 43.7161 16.44 44.4761 16C45.2494 15.56 46.1161 15.34 47.0761 15.34C48.0228 15.34 48.8761 15.56 49.6361 16C50.4094 16.44 51.0161 17.0533 51.4561 17.84C51.9094 18.6133 52.1361 19.5133 52.1361 20.54C52.1361 21.5667 51.9094 22.4733 51.4561 23.26C51.0161 24.0333 50.4094 24.64 49.6361 25.08C48.8628 25.52 48.0028 25.74 47.0561 25.74ZM47.0561 23.52C47.7228 23.52 48.3028 23.2733 48.7961 22.78C49.2894 22.2733 49.5361 21.5267 49.5361 20.54C49.5361 19.5533 49.2894 18.8133 48.7961 18.32C48.3028 17.8133 47.7294 17.56 47.0761 17.56C46.3961 17.56 45.8094 17.8133 45.3161 18.32C44.8361 18.8133 44.5961 19.5533 44.5961 20.54C44.5961 21.5267 44.8361 22.2733 45.3161 22.78C45.8094 23.2733 46.3894 23.52 47.0561 23.52ZM54.425 25.5V15.58H56.705L56.945 17.44C57.305 16.8 57.7917 16.2933 58.405 15.92C59.0317 15.5333 59.765 15.34 60.605 15.34V18.04H59.885C59.325 18.04 58.825 18.1267 58.385 18.3C57.945 18.4733 57.5983 18.7733 57.345 19.2C57.105 19.6267 56.985 20.22 56.985 20.98V25.5H54.425ZM66.9989 25.74C65.9989 25.74 65.1122 25.5267 64.3389 25.1C63.5656 24.6733 62.9589 24.0733 62.5189 23.3C62.0789 22.5267 61.8589 21.6333 61.8589 20.62C61.8589 19.5933 62.0722 18.68 62.4989 17.88C62.9389 17.08 63.5389 16.46 64.2989 16.02C65.0722 15.5667 65.9789 15.34 67.0189 15.34C67.9922 15.34 68.8522 15.5533 69.5989 15.98C70.3456 16.4067 70.9256 16.9933 71.3389 17.74C71.7656 18.4733 71.9789 19.2933 71.9789 20.2C71.9789 20.3467 71.9722 20.5 71.9589 20.66C71.9589 20.82 71.9522 20.9867 71.9389 21.16H64.3989C64.4522 21.9333 64.7189 22.54 65.1989 22.98C65.6922 23.42 66.2856 23.64 66.9789 23.64C67.4989 23.64 67.9322 23.5267 68.2789 23.3C68.6389 23.06 68.9056 22.7533 69.0789 22.38H71.6789C71.4922 23.0067 71.1789 23.58 70.7389 24.1C70.3122 24.6067 69.7789 25.0067 69.1389 25.3C68.5122 25.5933 67.7989 25.74 66.9989 25.74ZM67.0189 17.42C66.3922 17.42 65.8389 17.6 65.3589 17.96C64.8789 18.3067 64.5722 18.84 64.4389 19.56H69.3789C69.3389 18.9067 69.0989 18.3867 68.6589 18C68.2189 17.6133 67.6722 17.42 67.0189 17.42ZM78.8977 25.5V11.1H81.4577V25.5H78.8977ZM88.8334 25.74C87.8734 25.74 87.0068 25.52 86.2334 25.08C85.4734 24.64 84.8668 24.0333 84.4134 23.26C83.9734 22.4733 83.7534 21.5667 83.7534 20.54C83.7534 19.5133 83.9801 18.6133 84.4334 17.84C84.8868 17.0533 85.4934 16.44 86.2534 16C87.0268 15.56 87.8934 15.34 88.8534 15.34C89.8001 15.34 90.6534 15.56 91.4134 16C92.1868 16.44 92.7934 17.0533 93.2334 17.84C93.6868 18.6133 93.9134 19.5133 93.9134 20.54C93.9134 21.5667 93.6868 22.4733 93.2334 23.26C92.7934 24.0333 92.1868 24.64 91.4134 25.08C90.6401 25.52 89.7801 25.74 88.8334 25.74ZM88.8334 23.52C89.5001 23.52 90.0801 23.2733 90.5734 22.78C91.0668 22.2733 91.3134 21.5267 91.3134 20.54C91.3134 19.5533 91.0668 18.8133 90.5734 18.32C90.0801 17.8133 89.5068 17.56 88.8534 17.56C88.1734 17.56 87.5868 17.8133 87.0934 18.32C86.6134 18.8133 86.3734 19.5533 86.3734 20.54C86.3734 21.5267 86.6134 22.2733 87.0934 22.78C87.5868 23.2733 88.1668 23.52 88.8334 23.52ZM101.062 25.74C100.049 25.74 99.1557 25.52 98.3823 25.08C97.609 24.64 96.9957 24.0267 96.5423 23.24C96.1023 22.4533 95.8823 21.5533 95.8823 20.54C95.8823 19.5267 96.1023 18.6267 96.5423 17.84C96.9957 17.0533 97.609 16.44 98.3823 16C99.1557 15.56 100.049 15.34 101.062 15.34C102.329 15.34 103.396 15.6733 104.262 16.34C105.129 16.9933 105.682 17.9 105.922 19.06H103.222C103.089 18.58 102.822 18.2067 102.422 17.94C102.036 17.66 101.576 17.52 101.042 17.52C100.336 17.52 99.7357 17.7867 99.2423 18.32C98.749 18.8533 98.5023 19.5933 98.5023 20.54C98.5023 21.4867 98.749 22.2267 99.2423 22.76C99.7357 23.2933 100.336 23.56 101.042 23.56C101.576 23.56 102.036 23.4267 102.422 23.16C102.822 22.8933 103.089 22.5133 103.222 22.02H105.922C105.682 23.14 105.129 24.04 104.262 24.72C103.396 25.4 102.329 25.74 101.062 25.74ZM111.615 25.74C110.761 25.74 110.061 25.6067 109.515 25.34C108.968 25.06 108.561 24.6933 108.295 24.24C108.028 23.7867 107.895 23.2867 107.895 22.74C107.895 21.82 108.255 21.0733 108.975 20.5C109.695 19.9267 110.775 19.64 112.215 19.64H114.735V19.4C114.735 18.72 114.541 18.22 114.155 17.9C113.768 17.58 113.288 17.42 112.715 17.42C112.195 17.42 111.741 17.5467 111.355 17.8C110.968 18.04 110.728 18.4 110.635 18.88H108.135C108.201 18.16 108.441 17.5333 108.855 17C109.281 16.4667 109.828 16.06 110.495 15.78C111.161 15.4867 111.908 15.34 112.735 15.34C114.148 15.34 115.261 15.6933 116.075 16.4C116.888 17.1067 117.295 18.1067 117.295 19.4V25.5H115.115L114.875 23.9C114.581 24.4333 114.168 24.8733 113.635 25.22C113.115 25.5667 112.441 25.74 111.615 25.74ZM112.195 23.74C112.928 23.74 113.495 23.5 113.895 23.02C114.308 22.54 114.568 21.9467 114.675 21.24H112.495C111.815 21.24 111.328 21.3667 111.035 21.62C110.741 21.86 110.595 22.16 110.595 22.52C110.595 22.9067 110.741 23.2067 111.035 23.42C111.328 23.6333 111.715 23.74 112.195 23.74ZM119.738 25.5V11.1H122.298V25.5H119.738ZM134.539 25.74C133.526 25.74 132.632 25.52 131.859 25.08C131.086 24.64 130.472 24.0267 130.019 23.24C129.579 22.4533 129.359 21.5533 129.359 20.54C129.359 19.5267 129.579 18.6267 130.019 17.84C130.472 17.0533 131.086 16.44 131.859 16C132.632 15.56 133.526 15.34 134.539 15.34C135.806 15.34 136.872 15.6733 137.739 16.34C138.606 16.9933 139.159 17.9 139.399 19.06H136.699C136.566 18.58 136.299 18.2067 135.899 17.94C135.512 17.66 135.052 17.52 134.519 17.52C133.812 17.52 133.212 17.7867 132.719 18.32C132.226 18.8533 131.979 19.5933 131.979 20.54C131.979 21.4867 132.226 22.2267 132.719 22.76C133.212 23.2933 133.812 23.56 134.519 23.56C135.052 23.56 135.512 23.4267 135.899 23.16C136.299 22.8933 136.566 22.5133 136.699 22.02H139.399C139.159 23.14 138.606 24.04 137.739 24.72C136.872 25.4 135.806 25.74 134.539 25.74ZM145.091 25.74C144.238 25.74 143.538 25.6067 142.991 25.34C142.444 25.06 142.038 24.6933 141.771 24.24C141.504 23.7867 141.371 23.2867 141.371 22.74C141.371 21.82 141.731 21.0733 142.451 20.5C143.171 19.9267 144.251 19.64 145.691 19.64H148.211V19.4C148.211 18.72 148.018 18.22 147.631 17.9C147.244 17.58 146.764 17.42 146.191 17.42C145.671 17.42 145.218 17.5467 144.831 17.8C144.444 18.04 144.204 18.4 144.111 18.88H141.611C141.678 18.16 141.918 17.5333 142.331 17C142.758 16.4667 143.304 16.06 143.971 15.78C144.638 15.4867 145.384 15.34 146.211 15.34C147.624 15.34 148.738 15.6933 149.551 16.4C150.364 17.1067 150.771 18.1067 150.771 19.4V25.5H148.591L148.351 23.9C148.058 24.4333 147.644 24.8733 147.111 25.22C146.591 25.5667 145.918 25.74 145.091 25.74ZM145.671 23.74C146.404 23.74 146.971 23.5 147.371 23.02C147.784 22.54 148.044 21.9467 148.151 21.24H145.971C145.291 21.24 144.804 21.3667 144.511 21.62C144.218 21.86 144.071 22.16 144.071 22.52C144.071 22.9067 144.218 23.2067 144.511 23.42C144.804 23.6333 145.191 23.74 145.671 23.74ZM153.214 25.5V15.58H155.474L155.674 17.26C155.981 16.6733 156.421 16.2067 156.994 15.86C157.581 15.5133 158.267 15.34 159.054 15.34C160.281 15.34 161.234 15.7267 161.914 16.5C162.594 17.2733 162.934 18.4067 162.934 19.9V25.5H160.374V20.14C160.374 19.2867 160.201 18.6333 159.854 18.18C159.507 17.7267 158.967 17.5 158.234 17.5C157.514 17.5 156.921 17.7533 156.454 18.26C156.001 18.7667 155.774 19.4733 155.774 20.38V25.5H153.214ZM169.942 25.74C169.009 25.74 168.175 25.5133 167.442 25.06C166.709 24.6067 166.129 23.9867 165.702 23.2C165.275 22.4133 165.062 21.52 165.062 20.52C165.062 19.52 165.275 18.6333 165.702 17.86C166.129 17.0733 166.709 16.46 167.442 16.02C168.175 15.5667 169.009 15.34 169.942 15.34C170.689 15.34 171.342 15.48 171.902 15.76C172.462 16.04 172.915 16.4333 173.262 16.94V11.1H175.822V25.5H173.542L173.262 24.08C172.942 24.52 172.515 24.9067 171.982 25.24C171.462 25.5733 170.782 25.74 169.942 25.74ZM170.482 23.5C171.309 23.5 171.982 23.2267 172.502 22.68C173.035 22.12 173.302 21.4067 173.302 20.54C173.302 19.6733 173.035 18.9667 172.502 18.42C171.982 17.86 171.309 17.58 170.482 17.58C169.669 17.58 168.995 17.8533 168.462 18.4C167.929 18.9467 167.662 19.6533 167.662 20.52C167.662 21.3867 167.929 22.1 168.462 22.66C168.995 23.22 169.669 23.5 170.482 23.5ZM179.809 14.04C179.342 14.04 178.956 13.9 178.649 13.62C178.356 13.34 178.209 12.9867 178.209 12.56C178.209 12.1333 178.356 11.7867 178.649 11.52C178.956 11.24 179.342 11.1 179.809 11.1C180.276 11.1 180.656 11.24 180.949 11.52C181.256 11.7867 181.409 12.1333 181.409 12.56C181.409 12.9867 181.256 13.34 180.949 13.62C180.656 13.9 180.276 14.04 179.809 14.04ZM178.529 25.5V15.58H181.089V25.5H178.529ZM188.321 25.74C187.388 25.74 186.554 25.5133 185.821 25.06C185.088 24.6067 184.508 23.9867 184.081 23.2C183.654 22.4133 183.441 21.52 183.441 20.52C183.441 19.52 183.654 18.6333 184.081 17.86C184.508 17.0733 185.088 16.46 185.821 16.02C186.554 15.5667 187.388 15.34 188.321 15.34C189.068 15.34 189.721 15.48 190.281 15.76C190.841 16.04 191.294 16.4333 191.641 16.94V11.1H194.201V25.5H191.921L191.641 24.08C191.321 24.52 190.894 24.9067 190.361 25.24C189.841 25.5733 189.161 25.74 188.321 25.74ZM188.861 23.5C189.688 23.5 190.361 23.2267 190.881 22.68C191.414 22.12 191.681 21.4067 191.681 20.54C191.681 19.6733 191.414 18.9667 190.881 18.42C190.361 17.86 189.688 17.58 188.861 17.58C188.048 17.58 187.374 17.8533 186.841 18.4C186.308 18.9467 186.041 19.6533 186.041 20.52C186.041 21.3867 186.308 22.1 186.841 22.66C187.374 23.22 188.048 23.5 188.861 23.5ZM200.228 25.74C199.374 25.74 198.674 25.6067 198.128 25.34C197.581 25.06 197.174 24.6933 196.908 24.24C196.641 23.7867 196.508 23.2867 196.508 22.74C196.508 21.82 196.868 21.0733 197.588 20.5C198.308 19.9267 199.388 19.64 200.828 19.64H203.348V19.4C203.348 18.72 203.154 18.22 202.768 17.9C202.381 17.58 201.901 17.42 201.328 17.42C200.808 17.42 200.354 17.5467 199.968 17.8C199.581 18.04 199.341 18.4 199.248 18.88H196.748C196.814 18.16 197.054 17.5333 197.468 17C197.894 16.4667 198.441 16.06 199.108 15.78C199.774 15.4867 200.521 15.34 201.348 15.34C202.761 15.34 203.874 15.6933 204.688 16.4C205.501 17.1067 205.908 18.1067 205.908 19.4V25.5H203.728L203.488 23.9C203.194 24.4333 202.781 24.8733 202.248 25.22C201.728 25.5667 201.054 25.74 200.228 25.74ZM200.808 23.74C201.541 23.74 202.108 23.5 202.508 23.02C202.921 22.54 203.181 21.9467 203.288 21.24H201.108C200.428 21.24 199.941 21.3667 199.648 21.62C199.354 21.86 199.208 22.16 199.208 22.52C199.208 22.9067 199.354 23.2067 199.648 23.42C199.941 23.6333 200.328 23.74 200.808 23.74ZM212.634 25.5C211.594 25.5 210.761 25.2467 210.134 24.74C209.507 24.2333 209.194 23.3333 209.194 22.04V17.72H207.494V15.58H209.194L209.494 12.92H211.754V15.58H214.434V17.72H211.754V22.06C211.754 22.54 211.854 22.8733 212.054 23.06C212.267 23.2333 212.627 23.32 213.134 23.32H214.374V25.5H212.634ZM221.198 25.74C220.198 25.74 219.311 25.5267 218.538 25.1C217.765 24.6733 217.158 24.0733 216.718 23.3C216.278 22.5267 216.058 21.6333 216.058 20.62C216.058 19.5933 216.271 18.68 216.698 17.88C217.138 17.08 217.738 16.46 218.498 16.02C219.271 15.5667 220.178 15.34 221.218 15.34C222.191 15.34 223.051 15.5533 223.798 15.98C224.545 16.4067 225.125 16.9933 225.538 17.74C225.965 18.4733 226.178 19.2933 226.178 20.2C226.178 20.3467 226.171 20.5 226.158 20.66C226.158 20.82 226.151 20.9867 226.138 21.16H218.598C218.651 21.9333 218.918 22.54 219.398 22.98C219.891 23.42 220.485 23.64 221.178 23.64C221.698 23.64 222.131 23.5267 222.478 23.3C222.838 23.06 223.105 22.7533 223.278 22.38H225.878C225.691 23.0067 225.378 23.58 224.938 24.1C224.511 24.6067 223.978 25.0067 223.338 25.3C222.711 25.5933 221.998 25.74 221.198 25.74ZM221.218 17.42C220.591 17.42 220.038 17.6 219.558 17.96C219.078 18.3067 218.771 18.84 218.638 19.56H223.578C223.538 18.9067 223.298 18.3867 222.858 18C222.418 17.6133 221.871 17.42 221.218 17.42ZM232.431 25.74C231.551 25.74 230.778 25.6 230.111 25.32C229.445 25.0267 228.911 24.6267 228.511 24.12C228.111 23.6133 227.871 23.0267 227.791 22.36H230.371C230.451 22.7467 230.665 23.08 231.011 23.36C231.371 23.6267 231.831 23.76 232.391 23.76C232.951 23.76 233.358 23.6467 233.611 23.42C233.878 23.1933 234.011 22.9333 234.011 22.64C234.011 22.2133 233.825 21.9267 233.451 21.78C233.078 21.62 232.558 21.4667 231.891 21.32C231.465 21.2267 231.031 21.1133 230.591 20.98C230.151 20.8467 229.745 20.68 229.371 20.48C229.011 20.2667 228.718 20 228.491 19.68C228.265 19.3467 228.151 18.94 228.151 18.46C228.151 17.58 228.498 16.84 229.191 16.24C229.898 15.64 230.885 15.34 232.151 15.34C233.325 15.34 234.258 15.6133 234.951 16.16C235.658 16.7067 236.078 17.46 236.211 18.42H233.791C233.645 17.6867 233.091 17.32 232.131 17.32C231.651 17.32 231.278 17.4133 231.011 17.6C230.758 17.7867 230.631 18.02 230.631 18.3C230.631 18.5933 230.825 18.8267 231.211 19C231.598 19.1733 232.111 19.3333 232.751 19.48C233.445 19.64 234.078 19.82 234.651 20.02C235.238 20.2067 235.705 20.4933 236.051 20.88C236.398 21.2533 236.571 21.7933 236.571 22.5C236.585 23.1133 236.425 23.6667 236.091 24.16C235.758 24.6533 235.278 25.04 234.651 25.32C234.025 25.6 233.285 25.74 232.431 25.74Z" fill="#008254"/>
<path d="M248 18.5H274.733M274.733 18.5L267 10M274.733 18.5L267 27" stroke="#008254" stroke-width="3"/>
</g>
<defs>
<clipPath id="clip0">
<rect width="284.733" height="37" fill="white"/>
</clipPath>
</defs>
</svg>
